<?xml version="1.0" encoding="UTF-8"?>
<svg width="200px" height="34px" viewBox="0 0 235 34" version="1.1" xmlns="http://www.w3.org/2000/svg" xmlns:xlink="http://www.w3.org/1999/xlink">
    <!-- Generator: Sketch 40.3 (33839) - http://www.bohemiancoding.com/sketch -->
    <title>Elements/Logo</title>
    <desc>Created with Sketch.</desc>
    <defs></defs>
    <g id="Symbols" stroke="none" stroke-width="1" fill="none" fill-rule="evenodd">
        <g id="Header/With-menu" transform="translate(-80.000000, -42.000000)" fill="#1A1918">
            <g id="Elements/Logo" transform="translate(80.000000, 42.000000)">
                <path d="M0,34 L34,34 L34,0 L0,0 L0,34 Z M5.77961469,28.2181188 L28.2203853,28.2181188 L28.2203853,5.77734818 L5.77961469,5.77734818 L5.77961469,28.2181188 Z" id="Fill-272"></path>
                <path d="M66.8769689,26.7300763 L66.8769689,17.7760546 L62.6851401,17.7760546 L62.6851401,23.8117285 C61.3876693,24.176522 60.8221051,24.2760111 59.8240506,24.2760111 C54.9335837,24.2760111 51.1742451,20.8602176 51.1742451,16.3832067 C51.1742451,12.038848 54.6008988,9.02101109 59.5246342,9.02101109 C60.9219105,9.02101109 62.4855292,9.28631543 64.0491479,9.81692413 C64.4483696,9.9495763 65.0472023,10.1485546 65.8456459,10.447022 L66.8437004,6.96490239 C65.3133502,6.29943065 64.6479805,6.06728935 63.5833891,5.801985 C62.1861128,5.47035457 60.5892257,5.30453935 58.9923385,5.30453935 C55.1997315,5.30453935 52.6713268,6.16677848 50.40907,8.22509804 C48.0470078,10.3806959 46.7805875,13.2658807 46.7805875,16.582185 C46.7805875,23.3474459 51.8396148,27.990272 59.1254125,27.990272 C60.955179,27.990272 62.3191868,27.7912937 64.6479805,27.260685 L66.8769689,26.7300763 Z M88.0357237,27.5591524 L82.5796926,18.1740111 C84.4094591,17.6765654 85.1746342,17.2122828 86.0063463,16.1510654 C86.8047899,15.089848 87.2040117,13.7301633 87.2040117,12.038848 C87.2040117,9.98273935 86.605179,8.39091326 85.4075136,7.29653283 C84.1100428,6.06728935 82.6462296,5.66933283 79.4524553,5.66933283 L72.1333891,5.66933283 L72.1333891,27.5591524 L76.3252179,27.5591524 L76.3252179,18.8041089 L78.4211323,18.8041089 L83.4446732,27.5591524 L88.0357237,27.5591524 Z M82.8791089,12.1383372 C82.8791089,14.327098 81.7147121,15.2556633 79.0532335,15.2556633 L76.3252179,15.2556633 L76.3252179,9.21998935 L79.0532335,9.21998935 C81.781249,9.21998935 82.8791089,10.0490654 82.8791089,12.1383372 L82.8791089,12.1383372 Z M109.263233,19.0030872 L109.263233,5.66933283 L105.071405,5.66933283 L105.071405,19.2352285 C105.071405,22.3857176 103.374712,24.1101959 100.180938,24.1101959 C96.6855292,24.1101959 94.9888366,22.4852067 94.9888366,19.2352285 L94.9888366,5.66933283 L90.8302763,5.66933283 L90.8302763,19.0030872 C90.8302763,23.0158154 91.5621829,24.8397828 93.8244397,26.3984459 C95.4878638,27.5259893 97.2865798,27.990272 100.047864,27.990272 C102.775879,27.990272 104.638914,27.4928263 106.235802,26.3984459 C108.531327,24.8066198 109.263233,23.0158154 109.263233,19.0030872 L109.263233,19.0030872 Z M133.549226,27.7581307 L133.549226,5.66933283 L129.590276,5.66933283 L129.590276,21.921435 C129.324128,21.2250111 129.057981,20.5285872 128.425879,19.5336959 L119.543195,5.66933283 L114.719265,5.66933283 L114.719265,27.5591524 L118.711482,27.5591524 L118.711482,11.5082393 C118.811288,11.8730328 118.877825,12.005685 119.010899,12.2709893 L119.742805,13.5975111 L129.157786,27.7581307 L133.549226,27.7581307 Z M158.935296,16.549022 C158.935296,13.6970002 157.870704,10.9113046 155.974401,8.88835891 C153.811949,6.60010891 151.21479,5.66933283 147.05623,5.66933283 L138.905451,5.66933283 L138.905451,27.5591524 L147.022961,27.5591524 C150.984128,27.5591524 153.878486,26.497935 155.907864,24.3423372 C157.837436,22.2862285 158.935296,19.4673698 158.935296,16.549022 L158.935296,16.549022 Z M154.410782,16.582185 C154.410782,21.2581741 151.61623,23.8780546 146.623739,23.8780546 L143.296891,23.8780546 L143.296891,9.35264152 L146.623739,9.35264152 C149.01907,9.35264152 150.717981,9.78376109 151.882377,10.6460002 C153.445996,11.8067067 154.410782,14.0949567 154.410782,16.582185 L154.410782,16.582185 Z M176.900276,7.12850674 C175.436463,6.43208283 174.83763,6.19994152 173.773039,5.86831109 C172.409031,5.47035457 171.11156,5.30453935 169.647747,5.30453935 C167.086074,5.30453935 165.722066,5.66933283 164.125179,6.76371326 C163.426541,7.26115891 162.860977,7.82714152 162.495023,8.39091326 C161.962728,9.21998935 161.630043,10.3475328 161.630043,11.4419133 C161.630043,13.8296524 162.827708,15.2888263 166.720121,17.5107502 L170.113506,19.4342067 C171.544051,20.2301198 172.043078,20.8602176 172.043078,21.7887828 C172.043078,23.1153046 170.778875,23.9775437 168.849304,23.9775437 C167.984323,23.9775437 166.786658,23.7454024 165.688798,23.3474459 C164.823817,23.0158154 164.158447,22.684185 162.56156,21.8219459 L160.798331,25.6688589 L162.228875,26.3321198 C164.524401,27.3933372 165.256307,27.6586415 166.819926,27.8576198 C167.452027,27.9571089 168.117397,27.990272 168.782767,27.990272 C173.639965,27.990272 176.501054,25.702022 176.501054,21.7887828 C176.501054,20.2632828 175.93549,18.8041089 175.003973,17.8755437 C173.97265,16.8474893 171.77693,15.4546415 168.416813,13.6638372 C166.853195,12.8347611 166.320899,12.2709893 166.320899,11.3424241 C166.320899,10.1153915 167.585101,9.31947848 169.547942,9.31947848 C171.011755,9.31947848 172.908058,9.85008717 175.236852,10.8781415 L176.900276,7.12850674 Z M197.42693,27.5591524 L189.475763,5.66933283 L185.716424,5.66933283 L177.765257,27.5591524 L182.156696,27.5591524 L183.953195,22.1535763 L191.305529,22.1535763 L193.03549,27.5591524 L197.42693,27.5591524 Z M190.174401,18.6051307 L185.084323,18.6051307 L187.612728,10.6791633 L190.174401,18.6051307 Z M213.497825,27.5591524 L213.497825,24.0107067 L204.513117,24.0107067 L204.513117,5.66933283 L200.321288,5.66933283 L200.321288,27.5591524 L213.497825,27.5591524 Z M234.257358,26.7300763 L234.257358,17.7760546 L230.065529,17.7760546 L230.065529,23.8117285 C228.768058,24.176522 228.202494,24.2760111 227.20444,24.2760111 C222.313973,24.2760111 218.554634,20.8602176 218.554634,16.3832067 C218.554634,12.038848 221.981288,9.02101109 226.905023,9.02101109 C228.3023,9.02101109 229.865918,9.28631543 231.429537,9.81692413 C231.828759,9.9495763 232.427591,10.1485546 233.226035,10.447022 L234.224089,6.96490239 C232.693739,6.29943065 232.02837,6.06728935 230.963778,5.801985 C229.566502,5.47035457 227.969615,5.30453935 226.372728,5.30453935 C222.580121,5.30453935 220.051716,6.16677848 217.789459,8.22509804 C215.427397,10.3806959 214.160977,13.2658807 214.160977,16.582185 C214.160977,23.3474459 219.220004,27.990272 226.505802,27.990272 C228.335568,27.990272 229.699576,27.7912937 232.02837,27.260685 L234.257358,26.7300763 Z" id="Fill-273"></path>
            </g>
        </g>
    </g>
</svg>