<?xml version="1.0" encoding="UTF-8"?>
<svg width="235px" height="34px" viewBox="0 0 235 34" version="1.1" xmlns="http://www.w3.org/2000/svg" xmlns:xlink="http://www.w3.org/1999/xlink">
<g id="Group-3" fill="#1A1918">
    <path d="M0,34 L34,34 L34,0 L0,0 L0,34 Z M5.77961469,28.2181188 L28.2203853,28.2181188 L28.2203853,5.77734818 L5.77961469,5.77734818 L5.77961469,28.2181188 Z" id="Fill-272"></path>
    <path d="M20.8769689,21.7300763 L20.8769689,12.7760546 L16.6851401,12.7760546 L16.6851401,18.8117285 C15.3876693,19.176522 14.8221051,19.2760111 13.8240506,19.2760111 C8.93358366,19.2760111 5.17424514,15.8602176 5.17424514,11.3832067 C5.17424514,7.03884804 8.60089883,4.02101109 13.5246342,4.02101109 C14.9219105,4.02101109 16.4855292,4.28631543 18.0491479,4.81692413 C18.4483696,4.9495763 19.0472023,5.14855457 19.8456459,5.44702196 L20.8437004,1.96490239 C19.3133502,1.29943065 18.6479805,1.06728935 17.5833891,0.801985 C16.1861128,0.470354565 14.5892257,0.304539348 12.9923385,0.304539348 C9.19973152,0.304539348 6.67132685,1.16677848 4.40907004,3.22509804 C2.04700778,5.38069587 0.780587549,8.26588065 0.780587549,11.582185 C0.780587549,18.3474459 5.83961479,22.990272 13.1254125,22.990272 C14.955179,22.990272 16.3191868,22.7912937 18.6479805,22.260685 L20.8769689,21.7300763 Z M42.0357237,22.5591524 L36.5796926,13.1740111 C38.4094591,12.6765654 39.1746342,12.2122828 40.0063463,11.1510654 C40.8047899,10.089848 41.2040117,8.73016326 41.2040117,7.03884804 C41.2040117,4.98273935 40.605179,3.39091326 39.4075136,2.29653283 C38.1100428,1.06728935 36.6462296,0.669332826 33.4524553,0.669332826 L26.1333891,0.669332826 L26.1333891,22.5591524 L30.3252179,22.5591524 L30.3252179,13.8041089 L32.4211323,13.8041089 L37.4446732,22.5591524 L42.0357237,22.5591524 Z M36.8791089,7.13833717 C36.8791089,9.32709804 35.7147121,10.2556633 33.0532335,10.2556633 L30.3252179,10.2556633 L30.3252179,4.21998935 L33.0532335,4.21998935 C35.781249,4.21998935 36.8791089,5.04906543 36.8791089,7.13833717 L36.8791089,7.13833717 Z M63.2632335,14.0030872 L63.2632335,0.669332826 L59.0714047,0.669332826 L59.0714047,14.2352285 C59.0714047,17.3857176 57.3747121,19.1101959 54.1809377,19.1101959 C50.6855292,19.1101959 48.9888366,17.4852067 48.9888366,14.2352285 L48.9888366,0.669332826 L44.8302763,0.669332826 L44.8302763,14.0030872 C44.8302763,18.0158154 45.5621829,19.8397828 47.8244397,21.3984459 C49.4878638,22.5259893 51.2865798,22.990272 54.0478638,22.990272 C56.7758794,22.990272 58.6389144,22.4928263 60.2358016,21.3984459 C62.5313268,19.8066198 63.2632335,18.0158154 63.2632335,14.0030872 L63.2632335,14.0030872 Z M87.5492257,22.7581307 L87.5492257,0.669332826 L83.5902763,0.669332826 L83.5902763,16.921435 C83.3241284,16.2250111 83.0579805,15.5285872 82.4258794,14.5336959 L73.5431946,0.669332826 L68.7192646,0.669332826 L68.7192646,22.5591524 L72.7114825,22.5591524 L72.7114825,6.50823935 C72.8112879,6.87303283 72.8778249,7.005685 73.0108988,7.27098935 L73.7428054,8.59751109 L83.157786,22.7581307 L87.5492257,22.7581307 Z M112.935296,11.549022 C112.935296,8.69700022 111.870704,5.91130457 109.974401,3.88835891 C107.811949,1.60010891 105.21479,0.669332826 101.05623,0.669332826 L92.9054514,0.669332826 L92.9054514,22.5591524 L101.022961,22.5591524 C104.984128,22.5591524 107.878486,21.497935 109.907864,19.3423372 C111.837436,17.2862285 112.935296,14.4673698 112.935296,11.549022 L112.935296,11.549022 Z M108.410782,11.582185 C108.410782,16.2581741 105.61623,18.8780546 100.623739,18.8780546 L97.2968911,18.8780546 L97.2968911,4.35264152 L100.623739,4.35264152 C103.01907,4.35264152 104.717981,4.78376109 105.882377,5.64600022 C107.445996,6.80670674 108.410782,9.09495674 108.410782,11.582185 L108.410782,11.582185 Z M130.900276,2.12850674 C129.436463,1.43208283 128.83763,1.19994152 127.773039,0.868311087 C126.409031,0.470354565 125.11156,0.304539348 123.647747,0.304539348 C121.086074,0.304539348 119.722066,0.669332826 118.125179,1.76371326 C117.426541,2.26115891 116.860977,2.82714152 116.495023,3.39091326 C115.962728,4.21998935 115.630043,5.34753283 115.630043,6.44191326 C115.630043,8.82965239 116.827708,10.2888263 120.720121,12.5107502 L124.113506,14.4342067 C125.544051,15.2301198 126.043078,15.8602176 126.043078,16.7887828 C126.043078,18.1153046 124.778875,18.9775437 122.849304,18.9775437 C121.984323,18.9775437 120.786658,18.7454024 119.688798,18.3474459 C118.823817,18.0158154 118.158447,17.684185 116.56156,16.8219459 L114.798331,20.6688589 L116.228875,21.3321198 C118.524401,22.3933372 119.256307,22.6586415 120.819926,22.8576198 C121.452027,22.9571089 122.117397,22.990272 122.782767,22.990272 C127.639965,22.990272 130.501054,20.702022 130.501054,16.7887828 C130.501054,15.2632828 129.93549,13.8041089 129.003973,12.8755437 C127.97265,11.8474893 125.77693,10.4546415 122.416813,8.66383717 C120.853195,7.83476109 120.320899,7.27098935 120.320899,6.34242413 C120.320899,5.11539152 121.585101,4.31947848 123.547942,4.31947848 C125.011755,4.31947848 126.908058,4.85008717 129.236852,5.87814152 L130.900276,2.12850674 Z M151.42693,22.5591524 L143.475763,0.669332826 L139.716424,0.669332826 L131.765257,22.5591524 L136.156696,22.5591524 L137.953195,17.1535763 L145.305529,17.1535763 L147.03549,22.5591524 L151.42693,22.5591524 Z M144.174401,13.6051307 L139.084323,13.6051307 L141.612728,5.67916326 L144.174401,13.6051307 Z M167.497825,22.5591524 L167.497825,19.0107067 L158.513117,19.0107067 L158.513117,0.669332826 L154.321288,0.669332826 L154.321288,22.5591524 L167.497825,22.5591524 Z M188.257358,21.7300763 L188.257358,12.7760546 L184.065529,12.7760546 L184.065529,18.8117285 C182.768058,19.176522 182.202494,19.2760111 181.20444,19.2760111 C176.313973,19.2760111 172.554634,15.8602176 172.554634,11.3832067 C172.554634,7.03884804 175.981288,4.02101109 180.905023,4.02101109 C182.3023,4.02101109 183.865918,4.28631543 185.429537,4.81692413 C185.828759,4.9495763 186.427591,5.14855457 187.226035,5.44702196 L188.224089,1.96490239 C186.693739,1.29943065 186.02837,1.06728935 184.963778,0.801985 C183.566502,0.470354565 181.969615,0.304539348 180.372728,0.304539348 C176.580121,0.304539348 174.051716,1.16677848 171.789459,3.22509804 C169.427397,5.38069587 168.160977,8.26588065 168.160977,11.582185 C168.160977,18.3474459 173.220004,22.990272 180.505802,22.990272 C182.335568,22.990272 183.699576,22.7912937 186.02837,22.260685 L188.257358,21.7300763 Z" id="Fill-273"></path>
</g>
</svg>