<?xml version="1.0" encoding="UTF-8"?>
<svg width="50px" height="50px" viewBox="0 0 50 50" version="1.1" xmlns="http://www.w3.org/2000/svg" xmlns:xlink="http://www.w3.org/1999/xlink">
    <!-- Generator: Sketch 41 (35326) - http://www.bohemiancoding.com/sketch -->
    <title>camera</title>
    <desc>Created with Sketch.</desc>
    <defs>
        <circle id="path-1" cx="25" cy="25" r="25"></circle>
        <mask id="mask-2" maskContentUnits="userSpaceOnUse" maskUnits="objectBoundingBox" x="0" y="0" width="50" height="50" fill="white">
            <use xlink:href="#path-1"></use>
        </mask>
    </defs>
    <g id="Page-1" stroke="none" stroke-width="1" fill="none" fill-rule="evenodd">
        <g id="camera">
            <use stroke="#1A1918" mask="url(#mask-2)" stroke-width="4" xlink:href="#path-1"></use>
            <g transform="translate(13.000000, 13.000000)">
                <g id="Frames-24px">
                    <rect id="Rectangle-path" x="0" y="0" width="25" height="25"></rect>
                </g>
                <g transform="translate(2.083333, 3.125000)" fill="#000000">
                    <g id="Group">
                        <path d="M10.4166667,5.21041667 C7.54479167,5.21041667 5.20833333,7.546875 5.20833333,10.41875 C5.20833333,13.290625 7.54479167,15.6270833 10.4166667,15.6270833 C13.2885417,15.6270833 15.625,13.290625 15.625,10.41875 C15.625,7.546875 13.2885417,5.21041667 10.4166667,5.21041667 Z M10.4166667,13.54375 C8.69375,13.54375 7.29166667,12.1416667 7.29166667,10.41875 C7.29166667,8.69583333 8.69375,7.29375 10.4166667,7.29375 C12.1395833,7.29375 13.5416667,8.69583333 13.5416667,10.41875 C13.5416667,12.1416667 12.1395833,13.54375 10.4166667,13.54375 Z" id="Shape"></path>
                        <path d="M18.75,3.12708333 L15.140625,3.12708333 L13.6760417,0.93125 C13.2885417,0.348958333 12.640625,0.00208333333 11.9427083,0.00208333333 L8.890625,0.00208333333 C8.19270833,0.00208333333 7.54479167,0.348958333 7.15729167,0.93125 L5.69270833,3.12708333 L2.08333333,3.12708333 C0.934375,3.12708333 0,4.06145833 0,5.21041667 L0,16.66875 C0,17.8177083 0.934375,18.7520833 2.08333333,18.7520833 L18.75,18.7520833 C19.8989583,18.7520833 20.8333333,17.8177083 20.8333333,16.66875 L20.8333333,5.21041667 C20.8333333,4.06145833 19.8989583,3.12708333 18.75,3.12708333 Z M2.08333333,16.66875 L2.08333333,5.21041667 L6.80729167,5.21041667 L8.890625,2.08541667 L11.9427083,2.08541667 L14.0260417,5.21041667 L18.75,5.21041667 L18.7510417,16.66875 L2.08333333,16.66875 Z" id="Shape"></path>
                    </g>
                </g>
            </g>
        </g>
    </g>
</svg>