<?xml version="1.0" encoding="UTF-8"?>
<svg width="30px" height="40px" viewBox="0 0 36 40" version="1.1" xmlns="http://www.w3.org/2000/svg" xmlns:xlink="http://www.w3.org/1999/xlink">
    <!-- Generator: Sketch 41 (35326) - http://www.bohemiancoding.com/sketch -->
    <title>pdf</title>
    <desc>Created with Sketch.</desc>
    <defs></defs>
    <g id="Symbols" stroke="none" stroke-width="1" fill="none" fill-rule="evenodd">
        <g id="Icons/PDF">
            <g id="pdf" transform="translate(1.000000, 1.000000)">
                <path d="M4.38461538,32.8846154 L4.38461538,36.5384615 C4.38461538,37.3459615 5.03865385,38 5.84615385,38 L32.1538462,38 C32.9613462,38 33.6153846,37.3459615 33.6153846,36.5384615 L33.6153846,8.76923077" id="Shape" stroke="#000000" stroke-width="2"></path>
                <path d="M22.6538462,0 L5.84615385,0 C5.03865385,0 4.38461538,0.654038462 4.38461538,1.46153846 L4.38461538,17.5384615" id="Shape" stroke="#000000" stroke-width="2"></path>
                <path d="M33.6153846,8.76923077 L24.8461538,0" id="Shape" stroke="#000000" stroke-width="2"></path>
                <path d="M24.8461538,0 L24.8461538,5.84615385 C24.8461538,7.46042308 26.1549615,8.76923077 27.7692308,8.76923077 L33.6153846,8.76923077" id="Shape" stroke="#000000" stroke-width="2"></path>
                <g id="Group" transform="translate(3.653846, 21.192308)" fill="#000000">
                    <path d="M4.32907692,0.729307692 C4.72296154,1.06473077 4.91953846,1.57919231 4.91953846,2.27269231 C4.91953846,2.96692308 4.71711538,3.47480769 4.313,3.79634615 C3.90815385,4.11715385 3.29065385,4.27865385 2.45976923,4.27865385 L1.71219231,4.27865385 L1.71219231,5.84615385 L0.458192308,5.84615385 L0.458192308,0.227269231 L2.44369231,0.227269231 C3.30673077,0.227269231 3.93519231,0.394615385 4.32907692,0.729307692 L4.32907692,0.729307692 Z M3.40830769,2.93988462 C3.55811538,2.77180769 3.63338462,2.52480769 3.63338462,2.20034615 C3.63338462,1.87588462 3.53546154,1.64496154 3.34034615,1.50903846 C3.1445,1.37238462 2.8405,1.30442308 2.42761538,1.30442308 L1.71219231,1.30442308 L1.71219231,3.19346154 L2.55623077,3.19346154 C2.97423077,3.19346154 3.2585,3.10869231 3.40830769,2.93988462 L3.40830769,2.93988462 Z" id="Shape"></path>
                    <path d="M10.1927692,0.962423077 C10.7284231,1.45276923 10.9966154,2.13457692 10.9966154,3.00857692 C10.9966154,3.88257692 10.7357308,4.57315385 10.2132308,5.0825 C9.69,5.59184615 8.89273077,5.84615385 7.82142308,5.84615385 L5.90023077,5.84615385 L5.90023077,0.227269231 L7.88573077,0.227269231 C8.88761538,0.227269231 9.65638462,0.472076923 10.1927692,0.962423077 L10.1927692,0.962423077 Z M9.272,4.3035 C9.57965385,4.01411538 9.73384615,3.59246154 9.73384615,3.04073077 C9.73384615,2.489 9.57965385,2.06369231 9.272,1.767 C8.96361538,1.46957692 8.49080769,1.3205 7.85357692,1.3205 L7.15423077,1.3205 L7.15423077,4.73757692 L7.95003846,4.73757692 C8.52369231,4.73684615 8.96434615,4.59215385 9.272,4.3035 L9.272,4.3035 Z" id="Shape"></path>
                    <polygon id="Shape" points="15.9402692 0.227269231 15.9402692 1.32926923 13.3365385 1.32926923 13.3365385 2.54234615 15.8123846 2.54234615 15.8123846 3.64434615 13.3365385 3.64434615 13.3365385 5.84615385 12.0825385 5.84615385 12.0825385 0.227269231"></polygon>
                </g>
                <rect id="Rectangle-path" stroke="#000000" stroke-width="2" x="0" y="17.5384615" width="23.3846154" height="13.1538462"></rect>
            </g>
        </g>
    </g>
</svg>