<?xml version="1.0" encoding="UTF-8"?>
<svg width="30px" height="40px" viewBox="0 0 36 40" version="1.1" xmlns="http://www.w3.org/2000/svg" xmlns:xlink="http://www.w3.org/1999/xlink">
    <!-- Generator: Sketch 41 (35326) - http://www.bohemiancoding.com/sketch -->
    <title>txt</title>
    <desc>Created with Sketch.</desc>
    <defs></defs>
    <g id="Symbols" stroke="none" stroke-width="1" fill="none" fill-rule="evenodd">
        <g id="Icons/TXT">
            <g id="txt" transform="translate(1.000000, 1.000000)">
                <path d="M4.38461538,32.8846154 L4.38461538,36.5384615 C4.38461538,37.3459615 5.03865385,38 5.84615385,38 L32.1538462,38 C32.9613462,38 33.6153846,37.3459615 33.6153846,36.5384615 L33.6153846,8.76923077" id="Shape" stroke="#000000" stroke-width="2"></path>
                <path d="M22.6538462,0 L5.84615385,0 C5.03865385,0 4.38461538,0.654038462 4.38461538,1.46153846 L4.38461538,17.5384615" id="Shape" stroke="#000000" stroke-width="2"></path>
                <path d="M33.6153846,8.76923077 L24.8461538,0" id="Shape" stroke="#000000" stroke-width="2"></path>
                <path d="M24.8461538,0 L24.8461538,5.84615385 C24.8461538,7.46042308 26.1549615,8.76923077 27.7692308,8.76923077 L33.6153846,8.76923077" id="Shape" stroke="#000000" stroke-width="2"></path>
                <g id="Group" transform="translate(3.653846, 21.192308)" fill="#000000">
                    <polygon id="Shape" points="3.42876923 1.31246154 3.42876923 5.84615385 2.17476923 5.84615385 2.17476923 1.31246154 0.583153846 1.31246154 0.583153846 0.227269231 5.02038462 0.227269231 5.02038462 1.31246154"></polygon>
                    <polygon id="Shape" points="9.09588462 0.227269231 10.6071154 0.227269231 8.85473077 2.93623077 10.7518077 5.84615385 9.2245 5.84615385 8.02676923 3.99803846 6.83707692 5.84615385 5.32584615 5.84615385 7.21488462 2.96838462 5.45446154 0.226538462 6.95765385 0.226538462 8.02676923 1.8905"></polygon>
                    <polygon id="Shape" points="13.9028846 1.31246154 13.9028846 5.84615385 12.6488846 5.84615385 12.6488846 1.31246154 11.0572692 1.31246154 11.0572692 0.227269231 15.4945 0.227269231 15.4945 1.31246154"></polygon>
                </g>
                <rect id="Rectangle-path" stroke="#000000" stroke-width="2" x="0" y="17.5384615" width="23.3846154" height="13.1538462"></rect>
            </g>
        </g>
    </g>
</svg>